<svg xmlns="http://www.w3.org/2000/svg" width="23.391" height="23.391" viewBox="0 0 23.391 23.391">
  <path id="transfer" d="M22.295,5.848h-.365V3.655C21.929,1.608,17.4,0,11.7,0S1.462,1.608,1.462,3.655V5.848H1.1A1.1,1.1,0,0,0,0,6.944V10.6a1.1,1.1,0,0,0,1.1,1.1h.365v7.31a1.462,1.462,0,0,0,1.462,1.462v1.462a1.462,1.462,0,0,0,1.462,1.462H5.848A1.462,1.462,0,0,0,7.31,21.929V20.467h8.772v1.462a1.462,1.462,0,0,0,1.462,1.462h1.462a1.462,1.462,0,0,0,1.462-1.462V20.467h.292a1.153,1.153,0,0,0,1.17-1.17V11.7h.365a1.1,1.1,0,0,0,1.1-1.1V6.944A1.1,1.1,0,0,0,22.295,5.848ZM5.117,18.274a1.462,1.462,0,1,1,1.462-1.462A1.462,1.462,0,0,1,5.117,18.274Zm.731-5.117A1.462,1.462,0,0,1,4.386,11.7V5.848A1.462,1.462,0,0,1,5.848,4.386h11.7a1.462,1.462,0,0,1,1.462,1.462V11.7a1.462,1.462,0,0,1-1.462,1.462Zm12.427,5.117a1.462,1.462,0,1,1,1.462-1.462A1.462,1.462,0,0,1,18.274,18.274Z" fill="#ea5a0e"/>
</svg>
